<?xml version="1.0" encoding="utf-8"?>
<!-- Generator: Adobe Illustrator 18.0.0, SVG Export Plug-In . SVG Version: 6.00 Build 0)  -->
<!DOCTYPE svg PUBLIC "-//W3C//DTD SVG 1.1//EN" "http://www.w3.org/Graphics/SVG/1.1/DTD/svg11.dtd">
<svg version="1.1" id="Layer_1" xmlns="http://www.w3.org/2000/svg" xmlns:xlink="http://www.w3.org/1999/xlink" x="0px" y="0px"
	 viewBox="0 0 30 25" enable-background="new 0 0 30 25" xml:space="preserve">
<path fill="#FFFFFF" d="M25.1,8.3c-1.1,0-2,0.4-2.8,1.1l-13.1-5c0,0,0,0,0,0C9.2,1.9,7.3,0,4.9,0S0.7,1.9,0.7,4.3s1.9,4.3,4.3,4.3
	c1.3,0,2.4-0.6,3.2-1.4L20.9,12c0,0.2-0.1,0.3-0.1,0.5s0,0.4,0.1,0.5L8.1,17.9c-0.8-0.9-1.9-1.4-3.2-1.4c-2.3,0-4.3,1.9-4.3,4.3
	S2.6,25,4.9,25s4.3-1.9,4.3-4.3c0,0,0,0,0,0l13.1-5c0.7,0.6,1.7,1.1,2.8,1.1c2.3,0,4.3-1.9,4.3-4.3S27.4,8.3,25.1,8.3z"/>
</svg>
